<svg xmlns="http://www.w3.org/2000/svg" version="1.1" xmlns:xlink="http://www.w3.org/1999/xlink" width="159.95" height="158.90999"><svg width="159.95" height="158.90999" viewBox="0 0 42.320104 42.044935" version="1.1" id="SvgjsSvg1267" inkscape:version="1.3.2 (091e20e, 2023-11-25, custom)" sodipodi:docname="logo px.svg" xmlns:inkscape="http://www.inkscape.org/namespaces/inkscape" xmlns:sodipodi="http://sodipodi.sourceforge.net/DTD/sodipodi-0.dtd" xmlns="http://www.w3.org/2000/svg" xmlns:svg="http://www.w3.org/2000/svg">
  <sodipodi:namedview id="SvgjsSodipodi:namedview1266" pagecolor="#ffffff" bordercolor="#000000" borderopacity="0.25" inkscape:showpageshadow="2" inkscape:pageopacity="0.0" inkscape:pagecheckerboard="0" inkscape:deskcolor="#d1d1d1" inkscape:document-units="px" inkscape:zoom="0.69219276" inkscape:cx="-13.002159" inkscape:cy="123.52051" inkscape:window-width="2400" inkscape:window-height="1261" inkscape:window-x="2391" inkscape:window-y="-9" inkscape:window-maximized="1" inkscape:current-layer="layer1"></sodipodi:namedview>
  <defs id="SvgjsDefs1265"></defs>
  <g inkscape:label="Warstwa 1" inkscape:groupmode="layer" id="SvgjsG1264" transform="translate(-108.17504,-115.9758)">
    <g id="SvgjsG1263" transform="translate(43.19305,48.162162)">
      <g id="SvgjsG1262">
        <g id="SvgjsG1261" transform="matrix(0.26458333,0,0,0.26458333,28.982779,-172.42803)">
          <circle class="cls-10" cx="270.39001" cy="935.84998" r="4.3800001" id="SvgjsCircle1260" style="fill:#010101"></circle>
          <circle class="cls-10" cx="243.92999" cy="1057.29" r="4.3800001" id="SvgjsCircle1259" style="fill:#010101"></circle>
          <circle class="cls-10" cx="270.39001" cy="1039.83" r="4.3800001" id="SvgjsCircle1258" style="fill:#010101"></circle>
          <circle class="cls-10" cx="285.63" cy="1016.71" r="4.3800001" id="SvgjsCircle1257" style="fill:#010101"></circle>
          <circle class="cls-10" cx="291.63" cy="987.37" r="4.3800001" id="SvgjsCircle1256" style="fill:#010101"></circle>
          <path class="cls-10" d="m 283.68,968.88 0.42,-0.58 c 0,0 0,0 0,0 0.16,-0.37 0.29,-0.79 -0.42,0.59 z" id="SvgjsPath1255" style="fill:#010101"></path>
          <path class="cls-10" d="m 290.06,959.94 c -0.04,-0.13 -0.09,-0.26 -0.14,-0.39 v 0 c -0.93,-2.47 -1.97,-4.87 -3.12,-7.21 l -5.54,8.35 -4.54,6.86 -6.58,9.94 -6.58,9.94 -1.31,1.99 -5.27,7.95 -3.81,5.76 -2.78,4.18 v -91.26 c -0.69,-0.33 -1.38,-0.66 -2.08,-0.98 -1.48,-0.67 -2.98,-1.3 -4.5,-1.88 -2.23,-0.85 -4.52,-1.6 -6.84,-2.26 -2.16,-0.6 -4.36,-1.11 -6.59,-1.54 -2.16,-0.42 -4.36,-0.73 -6.58,-0.96 -2.17,-0.23 -4.36,-0.36 -6.58,-0.42 -0.56,-0.01 -1.14,-0.01 -1.71,-0.01 -1.64,0 -3.26,0.04 -4.87,0.15 -2.22,0.13 -4.41,0.36 -6.58,0.67 -38.45,5.55 -68,38.64 -68,78.64 0,0.65 0,1.31 0.02,1.95 0.23,9.66 2.19,18.89 5.58,27.39 2.04,5.14 4.6,10 7.62,14.55 3.54,5.33 7.71,10.22 12.41,14.54 1.62,1.49 3.31,2.93 5.05,4.29 1.73,1.34 3.52,2.63 5.36,3.83 1.83,1.19 3.72,2.32 5.66,3.37 1.94,1.05 3.93,2.03 5.96,2.91 0.76,0.33 1.51,0.65 2.28,0.95 1.32,0.53 2.66,1.03 4.01,1.48 2.17,0.73 4.38,1.38 6.63,1.92 2.29,0.56 4.62,1.02 6.98,1.37 l 0.44,0.07 c 2.17,0.31 4.36,0.54 6.58,0.68 0.13,0 0.24,0.01 0.37,0.02 v 0 c 1.48,0.08 2.98,0.13 4.5,0.13 0.57,0 1.14,0 1.71,-0.02 0.56,-0.01 1.11,-0.03 1.65,-0.05 1.65,-0.07 3.3,-0.19 4.93,-0.36 v -8.53 c -2.17,0.25 -4.36,0.41 -6.58,0.46 -0.22,0 -0.45,0 -0.67,0 -0.35,0 -0.69,0 -1.04,0 -1.64,0 -3.26,-0.05 -4.87,-0.16 -0.59,-0.04 -1.19,-0.09 -1.78,-0.15 -1.62,-0.14 -3.22,-0.35 -4.8,-0.61 -0.8,-0.13 -1.61,-0.27 -2.4,-0.44 -2.3,-0.45 -4.56,-1.01 -6.77,-1.68 -2.18,-0.66 -4.32,-1.42 -6.4,-2.29 -2.06,-0.85 -4.07,-1.79 -6.03,-2.81 -1.94,-1.03 -3.84,-2.14 -5.68,-3.34 -0.53,-0.34 -1.04,-0.69 -1.55,-1.05 -1.29,-0.89 -2.56,-1.83 -3.79,-2.81 l 7.76,-11.73 9.64,-14.55 9.06,-13.68 6.15,-9.29 2.92,-4.42 3.66,-5.52 6.58,-9.94 6.58,-9.94 6.58,-9.94 6.59,-9.94 6.84,-10.34 v 95.38 l 6.58,-9.94 1.61,-2.43 4.97,-7.52 4.09,-6.17 2.49,-3.77 6.58,-9.94 6.58,-9.94 7.22,-10.9 c 0,0 0.09,-0.13 0.16,-0.29 l -0.42,0.58 c 0.71,-1.37 0.59,-0.96 0.42,-0.59 l 5.95,-8.35 z m -46.25,-37.57 c -0.08,-0.04 -0.16,-0.07 -0.24,-0.11 l -6.6,9.97 -6.59,9.94 -6.58,9.94 -6.58,9.94 -6.58,9.94 -6.58,9.94 -4.96,7.49 -9.07,13.71 -9.06,13.68 v 0 l -9.63,14.55 -4.88,7.37 c -0.39,-0.36 -0.76,-0.73 -1.13,-1.11 -0.1,-0.09 -0.2,-0.19 -0.29,-0.28 -0.36,-0.36 -0.7,-0.72 -1.05,-1.09 -0.4,-0.42 -0.8,-0.85 -1.19,-1.28 -0.39,-0.44 -0.78,-0.87 -1.16,-1.31 -0.39,-0.45 -0.76,-0.89 -1.12,-1.34 v 0 c -0.25,-0.32 -0.5,-0.63 -0.74,-0.95 v 0 c -0.19,-0.23 -0.36,-0.46 -0.54,-0.7 -0.22,-0.28 -0.44,-0.56 -0.65,-0.85 -0.14,-0.19 -0.28,-0.36 -0.42,-0.56 -0.3,-0.41 -0.59,-0.82 -0.88,-1.24 -0.3,-0.44 -0.6,-0.88 -0.9,-1.31 -0.03,-0.05 -0.05,-0.09 -0.08,-0.13 -0.31,-0.46 -0.61,-0.93 -0.9,-1.39 -0.24,-0.39 -0.49,-0.78 -0.73,-1.17 -0.06,-0.1 -0.13,-0.22 -0.19,-0.32 -0.16,-0.27 -0.32,-0.53 -0.47,-0.8 -0.08,-0.13 -0.16,-0.27 -0.24,-0.41 -0.13,-0.24 -0.27,-0.49 -0.41,-0.73 -0.13,-0.23 -0.26,-0.46 -0.39,-0.7 -0.12,-0.22 -0.24,-0.45 -0.35,-0.67 -0.29,-0.55 -0.57,-1.1 -0.84,-1.65 -0.21,-0.41 -0.4,-0.82 -0.59,-1.22 -0.02,-0.05 -0.04,-0.1 -0.07,-0.16 -0.04,-0.09 -0.08,-0.19 -0.13,-0.28 -0.03,-0.08 -0.07,-0.16 -0.11,-0.24 -0.05,-0.12 -0.1,-0.24 -0.16,-0.36 -0.07,-0.15 -0.13,-0.3 -0.2,-0.45 -0.41,-0.92 -0.79,-1.85 -1.16,-2.8 -0.16,-0.41 -0.31,-0.82 -0.46,-1.22 -0.1,-0.29 -0.22,-0.58 -0.31,-0.88 -0.04,-0.08 -0.07,-0.18 -0.1,-0.27 -0.05,-0.14 -0.1,-0.27 -0.15,-0.42 -0.1,-0.3 -0.21,-0.61 -0.3,-0.91 -0.14,-0.42 -0.27,-0.84 -0.4,-1.25 -0.13,-0.42 -0.25,-0.85 -0.36,-1.26 -0.12,-0.41 -0.23,-0.81 -0.33,-1.21 -0.13,-0.5 -0.27,-1 -0.39,-1.5 -0.1,-0.39 -0.18,-0.76 -0.27,-1.14 0,-0.03 0,-0.06 -0.02,-0.08 -0.13,-0.61 -0.26,-1.21 -0.38,-1.83 -0.12,-0.58 -0.22,-1.16 -0.32,-1.75 -0.05,-0.3 -0.1,-0.6 -0.15,-0.91 -0.12,-0.75 -0.23,-1.49 -0.32,-2.26 -0.03,-0.24 -0.06,-0.5 -0.1,-0.74 -0.01,-0.22 -0.04,-0.43 -0.07,-0.65 -0.03,-0.24 -0.05,-0.5 -0.07,-0.75 -0.1,-1.08 -0.18,-2.16 -0.23,-3.26 0,-0.21 -0.02,-0.42 -0.02,-0.63 -0.02,-0.29 -0.02,-0.58 -0.04,-0.87 0,-0.32 -0.01,-0.63 -0.01,-0.94 0,-0.34 0,-0.68 0,-1.01 0,-35.3 25.76,-64.58 59.52,-70.05 2.16,-0.36 4.36,-0.6 6.58,-0.76 1.61,-0.11 3.24,-0.16 4.87,-0.16 0.57,0 1.14,0 1.71,0.02 2.22,0.04 4.41,0.2 6.58,0.45 2.23,0.26 4.43,0.62 6.58,1.08 2.24,0.48 4.44,1.06 6.59,1.74 2.25,0.71 4.44,1.53 6.6,2.46 l 0.24,-0.37 v 0.48 z" id="SvgjsPath1254" style="fill:#010101"></path>
        </g>
      </g>
    </g>
  </g>
</svg><style>@media (prefers-color-scheme: light) { :root { filter: none; } }
@media (prefers-color-scheme: dark) { :root { filter: invert(100%); } }
</style></svg>